<svg width="127" height="28" viewBox="0 0 127 28" fill="none" xmlns="http://www.w3.org/2000/svg">
<path d="M2.112 22C1.952 22 1.808 21.944 1.68 21.832C1.552 21.72 1.488 21.568 1.488 21.376V5.824C1.488 5.648 1.552 5.504 1.68 5.392C1.808 5.264 1.952 5.2 2.112 5.2H6.024C6.2 5.2 6.344 5.264 6.456 5.392C6.584 5.504 6.648 5.648 6.648 5.824V11.248H11.544V5.824C11.544 5.648 11.6 5.504 11.712 5.392C11.84 5.264 11.992 5.2 12.168 5.2H16.08C16.256 5.2 16.4 5.264 16.512 5.392C16.64 5.504 16.704 5.648 16.704 5.824V21.376C16.704 21.552 16.64 21.704 16.512 21.832C16.4 21.944 16.256 22 16.08 22H12.168C11.992 22 11.84 21.944 11.712 21.832C11.6 21.704 11.544 21.552 11.544 21.376V15.808H6.648V21.376C6.648 21.552 6.584 21.704 6.456 21.832C6.344 21.944 6.2 22 6.024 22H2.112ZM24.0429 22C23.8669 22 23.7149 21.944 23.5869 21.832C23.4749 21.704 23.4189 21.552 23.4189 21.376V9.664H19.2909C19.1149 9.664 18.9629 9.608 18.8349 9.496C18.7229 9.368 18.6669 9.216 18.6669 9.04V5.824C18.6669 5.648 18.7229 5.504 18.8349 5.392C18.9629 5.264 19.1149 5.2 19.2909 5.2H32.7789C32.9549 5.2 33.0989 5.264 33.2109 5.392C33.3389 5.504 33.4029 5.648 33.4029 5.824V9.04C33.4029 9.216 33.3389 9.368 33.2109 9.496C33.0989 9.608 32.9549 9.664 32.7789 9.664H28.6509V21.376C28.6509 21.552 28.5869 21.704 28.4589 21.832C28.3469 21.944 28.2029 22 28.0269 22H24.0429ZM36.0032 22C35.8272 22 35.6752 21.944 35.5472 21.832C35.4192 21.704 35.3552 21.552 35.3552 21.376V5.824C35.3552 5.648 35.4192 5.504 35.5472 5.392C35.6752 5.264 35.8272 5.2 36.0032 5.2H39.1952C39.4832 5.2 39.6992 5.28 39.8432 5.44C39.9872 5.6 40.0832 5.712 40.1312 5.776L43.9712 12.448L47.8112 5.776C47.8592 5.712 47.9552 5.6 48.0992 5.44C48.2432 5.28 48.4592 5.2 48.7472 5.2H51.9392C52.1152 5.2 52.2592 5.264 52.3712 5.392C52.4992 5.504 52.5632 5.648 52.5632 5.824V21.376C52.5632 21.552 52.4992 21.704 52.3712 21.832C52.2592 21.944 52.1152 22 51.9392 22H48.3392C48.1632 22 48.0112 21.944 47.8832 21.832C47.7712 21.704 47.7152 21.552 47.7152 21.376V13.6L45.5552 17.392C45.4752 17.52 45.3712 17.648 45.2432 17.776C45.1152 17.904 44.9312 17.968 44.6912 17.968H43.2272C43.0032 17.968 42.8272 17.904 42.6992 17.776C42.5712 17.648 42.4672 17.52 42.3872 17.392L40.2272 13.6V21.376C40.2272 21.552 40.1632 21.704 40.0352 21.832C39.9232 21.944 39.7792 22 39.6032 22H36.0032ZM56.1823 22C56.0223 22 55.8783 21.944 55.7503 21.832C55.6223 21.704 55.5583 21.552 55.5583 21.376V5.824C55.5583 5.648 55.6223 5.504 55.7503 5.392C55.8783 5.264 56.0223 5.2 56.1823 5.2H60.1663C60.3423 5.2 60.4943 5.264 60.6223 5.392C60.7503 5.504 60.8143 5.648 60.8143 5.824V17.728H67.7503C67.9263 17.728 68.0783 17.792 68.2063 17.92C68.3343 18.032 68.3983 18.176 68.3983 18.352V21.376C68.3983 21.552 68.3343 21.704 68.2063 21.832C68.0783 21.944 67.9263 22 67.7503 22H56.1823Z" fill="#F1F5F9"/>
<path d="M72.8702 22C72.5662 22 72.3262 21.912 72.1502 21.736C71.9742 21.56 71.8702 21.368 71.8382 21.16L69.4382 5.824C69.4382 5.808 69.4302 5.792 69.4142 5.776C69.4142 5.76 69.4142 5.744 69.4142 5.728C69.4142 5.584 69.4622 5.464 69.5582 5.368C69.6702 5.256 69.7982 5.2 69.9422 5.2H73.6622C74.1582 5.2 74.4302 5.4 74.4782 5.8L75.6542 13.864L77.0222 9.592C77.0542 9.48 77.1262 9.344 77.2382 9.184C77.3502 9.008 77.5422 8.92 77.8142 8.92H79.9022C80.1742 8.92 80.3662 9.008 80.4782 9.184C80.5902 9.344 80.6702 9.48 80.7182 9.592L82.0622 13.84L83.2622 5.8C83.3102 5.4 83.5742 5.2 84.0542 5.2H87.7742C87.9182 5.2 88.0382 5.256 88.1342 5.368C88.2462 5.464 88.3022 5.584 88.3022 5.728C88.3022 5.744 88.3022 5.76 88.3022 5.776C88.3022 5.792 88.2942 5.808 88.2782 5.824L85.8782 21.16C85.8622 21.368 85.7582 21.56 85.5662 21.736C85.3902 21.912 85.1502 22 84.8462 22H81.9902C81.7022 22 81.4862 21.928 81.3422 21.784C81.1982 21.624 81.1022 21.488 81.0542 21.376L78.8702 15.472L76.6622 21.376C76.6302 21.488 76.5342 21.624 76.3742 21.784C76.2302 21.928 76.0142 22 75.7262 22H72.8702ZM97.5407 22.24C96.0047 22.24 94.6687 22 93.5327 21.52C92.4127 21.04 91.5247 20.32 90.8687 19.36C90.2287 18.384 89.8847 17.176 89.8367 15.736C89.8207 15.064 89.8127 14.376 89.8127 13.672C89.8127 12.952 89.8207 12.24 89.8367 11.536C89.8847 10.112 90.2287 8.912 90.8687 7.936C91.5247 6.96 92.4207 6.224 93.5567 5.728C94.6927 5.216 96.0207 4.96 97.5407 4.96C99.0447 4.96 100.365 5.216 101.501 5.728C102.637 6.224 103.533 6.96 104.189 7.936C104.845 8.912 105.189 10.112 105.221 11.536C105.253 12.24 105.269 12.952 105.269 13.672C105.269 14.376 105.253 15.064 105.221 15.736C105.173 17.176 104.821 18.384 104.165 19.36C103.525 20.32 102.637 21.04 101.501 21.52C100.381 22 99.0607 22.24 97.5407 22.24ZM97.5407 18.16C98.2127 18.16 98.7647 17.96 99.1967 17.56C99.6287 17.144 99.8527 16.488 99.8687 15.592C99.9007 14.904 99.9167 14.24 99.9167 13.6C99.9167 12.944 99.9007 12.28 99.8687 11.608C99.8527 11.016 99.7407 10.528 99.5327 10.144C99.3407 9.76 99.0687 9.48 98.7167 9.304C98.3807 9.128 97.9887 9.04 97.5407 9.04C97.0927 9.04 96.6927 9.128 96.3407 9.304C95.9887 9.48 95.7087 9.76 95.5007 10.144C95.3087 10.528 95.2047 11.016 95.1887 11.608C95.1727 12.28 95.1647 12.944 95.1647 13.6C95.1647 14.24 95.1727 14.904 95.1887 15.592C95.2207 16.488 95.4447 17.144 95.8607 17.56C96.2927 17.96 96.8527 18.16 97.5407 18.16ZM110.206 22C109.902 22 109.662 21.912 109.486 21.736C109.31 21.56 109.206 21.368 109.174 21.16L106.774 5.824C106.774 5.808 106.766 5.792 106.75 5.776C106.75 5.76 106.75 5.744 106.75 5.728C106.75 5.584 106.798 5.464 106.894 5.368C107.006 5.256 107.134 5.2 107.278 5.2H110.998C111.494 5.2 111.766 5.4 111.814 5.8L112.99 13.864L114.358 9.592C114.39 9.48 114.462 9.344 114.574 9.184C114.686 9.008 114.878 8.92 115.15 8.92H117.238C117.51 8.92 117.702 9.008 117.814 9.184C117.926 9.344 118.006 9.48 118.054 9.592L119.398 13.84L120.598 5.8C120.646 5.4 120.91 5.2 121.39 5.2H125.11C125.254 5.2 125.374 5.256 125.47 5.368C125.582 5.464 125.638 5.584 125.638 5.728C125.638 5.744 125.638 5.76 125.638 5.776C125.638 5.792 125.63 5.808 125.614 5.824L123.214 21.16C123.198 21.368 123.094 21.56 122.902 21.736C122.726 21.912 122.486 22 122.182 22H119.326C119.038 22 118.822 21.928 118.678 21.784C118.534 21.624 118.438 21.488 118.39 21.376L116.206 15.472L113.998 21.376C113.966 21.488 113.87 21.624 113.71 21.784C113.566 21.928 113.35 22 113.062 22H110.206Z" fill="url(#paint0_linear_112_876)"/>
<defs>
<linearGradient id="paint0_linear_112_876" x1="-5" y1="14.4828" x2="127" y2="14.4828" gradientUnits="userSpaceOnUse">
<stop stop-color="#93C5FD"/>
<stop offset="1" stop-color="#3B82F6"/>
</linearGradient>
</defs>
</svg>
