<svg width="122" height="22" viewBox="0 0 122 22" fill="none" xmlns="http://www.w3.org/2000/svg">
<rect y="0.0200195" width="122" height="21.96" fill="#91C6FD"/>
<g clip-path="url(#clip0_228_6)">
<path d="M75.4204 21.98C79.6538 20.211 83.7896 17.3684 89.2064 13.0252C95.16 8.26722 98.0148 6.24202 102.321 4.19242C108.043 1.43522 114.375 0.0200195 122 0.0200195V7.53522C120.487 7.40102 118.865 7.34002 117.12 7.34002C105.42 7.34002 99.7594 10.0606 88.9014 18.7348C87.3398 19.9914 85.9856 21.0528 84.7534 21.98H75.4204ZM46.5796 21.98H27.4744C26.2544 21.0528 24.9124 19.9914 23.3264 18.7348C14.1154 11.366 8.6376 8.29162 0 7.53522V0.0200195C7.625 0.0200195 13.9568 1.43522 19.6908 4.19242C23.9974 6.26642 26.8522 8.27942 32.7814 13.0252C38.2104 17.3684 42.3462 20.2232 46.5796 21.98ZM75.4204 0.0200195H84.7656C81.9939 2.20425 78.991 4.07798 75.8108 5.60762C70.0768 8.36482 63.745 9.78002 56.12 9.78002C48.495 9.78002 42.1632 8.36482 36.4292 5.60762C33.249 4.07798 30.2461 2.20425 27.4744 0.0200195L46.5796 0.0200195C50.813 1.77682 55.1562 2.46002 61 2.46002C66.856 2.46002 71.187 1.77682 75.4204 0.0200195Z" fill="#3B82F6"/>
</g>
<defs>
<clipPath id="clip0_228_6">
<rect width="122" height="21.96" fill="white" transform="translate(0 0.0200195)"/>
</clipPath>
</defs>
</svg>
