<svg width="34" height="35" viewBox="0 0 34 35" fill="none" xmlns="http://www.w3.org/2000/svg">
<path fill-rule="evenodd" clip-rule="evenodd" d="M4 0.145996C1.79086 0.145996 0 1.93686 0 4.146V30.146C0 32.3551 1.79086 34.146 4 34.146H30C32.2091 34.146 34 32.3551 34 30.146V4.146C34 1.93686 32.2091 0.145996 30 0.145996H4ZM28 11.146V23.146C28 24.2527 27.1334 25.146 26.06 25.146H7.94004C6.86655 25.146 6 24.2527 6 23.146V11.146C6 10.0393 6.86655 9.146 7.94004 9.146H26.06C27.1334 9.146 28 10.0393 28 11.146ZM26.2669 12.1193C26.4997 11.8927 26.7325 11.4393 26.3057 10.9993C25.8789 10.5593 25.4392 10.7727 25.077 11.0927L16.9935 17.8127L8.92299 11.0927C8.56085 10.7727 8.12111 10.5593 7.6943 10.9993C7.26749 11.4393 7.50029 11.8927 7.7331 12.1193L12.9841 17.0793L7.94004 22.4927C7.78483 22.6793 7.68136 22.9727 7.86243 23.1727C8.03057 23.386 8.41858 23.3727 8.58671 23.2393L14.2387 18.266L16.9935 20.866L19.7613 18.266L25.4133 23.2393C25.5814 23.3727 25.9694 23.386 26.1376 23.1727C26.3186 22.9727 26.2152 22.6793 26.06 22.4927L21.0159 17.0793L26.2669 12.1193Z" fill="#BFDBFE"/>
</svg>
