<svg width="14" height="14" viewBox="0 0 14 14" fill="none" xmlns="http://www.w3.org/2000/svg">
<path d="M11.6676 7C11.6676 5.05859 10.4809 3.39609 8.79648 2.69336L8.34805 3.7707C9.61133 4.29844 10.5 5.54531 10.5 7C10.5 8.45742 9.61133 9.70156 8.34531 10.2293L8.79375 11.3066C10.4809 10.6039 11.6676 8.94141 11.6676 7ZM9.33242 7C9.33242 6.0293 8.73906 5.19805 7.89687 4.84805L7.44844 5.92539C7.86953 6.10039 8.16484 6.51602 8.16484 7.00273C8.16484 7.48672 7.86953 7.90234 7.44844 8.08008L7.89687 9.15742C8.73906 8.80195 9.33242 7.9707 9.33242 7ZM9.69336 0.538672L9.24219 1.61602C11.3504 2.49375 12.8324 4.57188 12.8324 7C12.8324 9.42539 11.3504 11.5062 9.24219 12.384L9.69063 13.4613C12.2227 12.4059 14 9.91211 14 7C14 4.08789 12.2227 1.59414 9.69336 0.538672ZM0 4.08242V9.91484H2.33242L6.41758 14V0L2.33242 4.08242H0Z" fill="#94A3B8"/>
</svg>
