<svg width="35" height="35" viewBox="0 0 35 35" fill="none" xmlns="http://www.w3.org/2000/svg">
<path d="M30.3735 0H3.64482C1.63258 0 0 1.63258 0 3.64482V30.3735C0 32.3857 1.63258 34.0183 3.64482 34.0183H30.3735C32.3857 34.0183 34.0183 32.3857 34.0183 30.3735V3.64482C34.0183 1.63258 32.3857 0 30.3735 0ZM26.6603 12.0583C26.6755 12.2709 26.6755 12.4911 26.6755 12.7037C26.6755 19.2872 21.6639 26.8729 12.5063 26.8729C9.68155 26.8729 7.06184 26.0529 4.85976 24.6405C5.26221 24.6861 5.64947 24.7012 6.05951 24.7012C8.39068 24.7012 10.532 23.9115 12.2405 22.5751C10.0536 22.5295 8.21603 21.0944 7.58578 19.1201C8.35271 19.234 9.04371 19.234 9.83342 19.029C7.55541 18.5658 5.8469 16.5611 5.8469 14.1389V14.0781C6.50752 14.4502 7.28204 14.678 8.09454 14.7084C7.41146 14.254 6.85149 13.6376 6.4646 12.9142C6.0777 12.1907 5.87593 11.3828 5.87727 10.5624C5.87727 9.63599 6.12026 8.78553 6.55308 8.04898C9.00574 11.0711 12.6885 13.0454 16.8193 13.258C16.1131 9.87898 18.6417 7.13777 21.6791 7.13777C23.1142 7.13777 24.4051 7.73765 25.3163 8.7096C26.4401 8.49698 27.5184 8.07935 28.4751 7.50985C28.1031 8.66404 27.321 9.63599 26.2883 10.2511C27.2906 10.1447 28.2625 9.86379 29.1586 9.47653C28.4827 10.4713 27.6323 11.3521 26.6603 12.0583Z" fill="#BFDBFE"/>
</svg>
