<svg width="23" height="23" viewBox="0 0 23 23" fill="none" xmlns="http://www.w3.org/2000/svg">
<path d="M13.6157 11.5195L22.5192 2.61606C22.6676 2.47775 22.7866 2.31096 22.8692 2.12564C22.9518 1.94032 22.9962 1.74027 22.9998 1.53742C23.0033 1.33457 22.966 1.13307 22.89 0.944956C22.8141 0.756839 22.701 0.585954 22.5575 0.442494C22.414 0.299034 22.2432 0.185939 22.055 0.109955C21.8669 0.0339717 21.6654 -0.00334396 21.4626 0.000235115C21.2597 0.00381419 21.0597 0.0482146 20.8744 0.130787C20.689 0.213359 20.5223 0.332412 20.3839 0.480843L11.4805 9.38429L2.57704 0.480843C2.29065 0.213982 1.91186 0.0686995 1.52047 0.0756051C1.12908 0.0825108 0.755647 0.241065 0.478849 0.517864C0.20205 0.794662 0.0434957 1.16809 0.03659 1.55949C0.0296844 1.95088 0.174967 2.32967 0.441828 2.61606L9.34528 11.5195L0.441828 20.423C0.158911 20.7062 0 21.0902 0 21.4906C0 21.8909 0.158911 22.2749 0.441828 22.5582C0.725098 22.8411 1.10908 23 1.50944 23C1.90979 23 2.29378 22.8411 2.57704 22.5582L11.4805 13.6547L20.3839 22.5582C20.6672 22.8411 21.0512 23 21.4516 23C21.8519 23 22.2359 22.8411 22.5192 22.5582C22.8021 22.2749 22.961 21.8909 22.961 21.4906C22.961 21.0902 22.8021 20.7062 22.5192 20.423L13.6157 11.5195Z" fill="#1E293B"/>
</svg>
