<svg width="20" height="20" viewBox="0 0 20 20" fill="none" xmlns="http://www.w3.org/2000/svg">
<path d="M15.8333 3.33325H4.16663C3.50358 3.33325 2.8677 3.59664 2.39886 4.06549C1.93002 4.53433 1.66663 5.17021 1.66663 5.83325V14.1666C1.66663 14.8296 1.93002 15.4655 2.39886 15.9344C2.8677 16.4032 3.50358 16.6666 4.16663 16.6666H15.8333C16.4963 16.6666 17.1322 16.4032 17.6011 15.9344C18.0699 15.4655 18.3333 14.8296 18.3333 14.1666V5.83325C18.3333 5.17021 18.0699 4.53433 17.6011 4.06549C17.1322 3.59664 16.4963 3.33325 15.8333 3.33325ZM15.275 4.99992L9.99996 8.95825L4.72496 4.99992H15.275ZM15.8333 14.9999H4.16663C3.94561 14.9999 3.73365 14.9121 3.57737 14.7558C3.42109 14.5996 3.33329 14.3876 3.33329 14.1666V6.04159L9.49996 10.6666C9.64421 10.7748 9.81965 10.8333 9.99996 10.8333C10.1803 10.8333 10.3557 10.7748 10.5 10.6666L16.6666 6.04159V14.1666C16.6666 14.3876 16.5788 14.5996 16.4225 14.7558C16.2663 14.9121 16.0543 14.9999 15.8333 14.9999Z" fill="#0F172A"/>
</svg>
