<svg width="35" height="34" viewBox="0 0 35 34" fill="none" xmlns="http://www.w3.org/2000/svg">
<path d="M30.5195 0H3.79082C1.77857 0 0.145996 1.59547 0.145996 3.56198V29.6832C0.145996 31.6497 1.77857 33.2452 3.79082 33.2452H30.5195C32.5317 33.2452 34.1643 31.6497 34.1643 29.6832V3.56198C34.1643 1.59547 32.5317 0 30.5195 0ZM21.2024 28.4736C20.5646 28.5849 20.3292 28.199 20.3292 27.8799C20.3292 27.4792 20.3444 25.4311 20.3444 23.7762C20.3444 22.6186 19.9495 21.8839 19.4863 21.498C22.2959 21.1938 25.2573 20.8153 25.2573 16.0734C25.2573 14.7229 24.7637 14.0476 23.9588 13.1793C24.0879 12.8602 24.5207 11.5468 23.8297 9.83998C22.7742 9.52088 20.3596 11.1683 20.3596 11.1683C19.3572 10.8937 18.2714 10.7527 17.2007 10.7527C16.13 10.7527 15.0442 10.8937 14.0419 11.1683C14.0419 11.1683 11.6272 9.52088 10.5717 9.83998C9.8807 11.5393 10.3059 12.8528 10.4426 13.1793C9.63771 14.0476 9.25804 14.7229 9.25804 16.0734C9.25804 20.7931 12.0904 21.1938 14.8999 21.498C14.5354 21.8171 14.2089 22.3663 14.095 23.1529C13.3737 23.472 11.5285 24.0211 10.4274 22.1214C9.73643 20.9489 8.49111 20.8524 8.49111 20.8524C7.26099 20.8376 8.40759 21.6094 8.40759 21.6094C9.22767 21.9804 9.80477 23.4052 9.80477 23.4052C10.5413 25.6092 14.0646 24.8671 14.0646 24.8671C14.0646 25.8986 14.0798 27.5757 14.0798 27.8799C14.0798 28.199 13.852 28.5849 13.2066 28.4736C8.19497 26.8336 4.68683 22.1733 4.68683 16.7265C4.68683 9.91418 10.0174 4.74189 16.9881 4.74189C23.9588 4.74189 29.6083 9.91418 29.6083 16.7265C29.6159 22.1733 26.214 26.841 21.2024 28.4736ZM13.7533 23.9395C13.609 23.9692 13.4724 23.9098 13.4572 23.8133C13.442 23.702 13.5407 23.6056 13.685 23.5759C13.8293 23.561 13.9659 23.6204 13.9811 23.7169C14.0039 23.8133 13.9052 23.9098 13.7533 23.9395ZM13.0319 23.8727C13.0319 23.9692 12.918 24.0508 12.7662 24.0508C12.5991 24.0656 12.4852 23.984 12.4852 23.8727C12.4852 23.7762 12.5991 23.6946 12.751 23.6946C12.8953 23.6798 13.0319 23.7614 13.0319 23.8727ZM11.9917 23.7911C11.9613 23.8875 11.8094 23.9321 11.6803 23.8875C11.5361 23.8579 11.4373 23.7465 11.4677 23.6501C11.4981 23.5536 11.65 23.5091 11.779 23.5388C11.9309 23.5833 12.0296 23.6946 11.9917 23.7911ZM11.0577 23.3904C10.9893 23.472 10.8451 23.4571 10.7312 23.3458C10.6173 23.2494 10.5869 23.1084 10.6628 23.0416C10.7312 22.9599 10.8754 22.9748 10.9893 23.0861C11.088 23.1826 11.126 23.331 11.0577 23.3904ZM10.3667 22.7151C10.2983 22.7596 10.1692 22.7151 10.0857 22.6037C10.0022 22.4924 10.0022 22.3663 10.0857 22.3143C10.1692 22.2475 10.2983 22.2995 10.3667 22.4108C10.4502 22.5221 10.4502 22.6557 10.3667 22.7151ZM9.87311 21.9952C9.80477 22.062 9.69087 22.0249 9.60734 21.9507C9.52381 21.8542 9.50863 21.7429 9.57697 21.691C9.64531 21.6242 9.75921 21.6613 9.84273 21.7355C9.92626 21.832 9.94145 21.9433 9.87311 21.9952ZM9.36435 21.4461C9.33398 21.5129 9.23526 21.5277 9.15174 21.4758C9.05302 21.4313 9.00746 21.3496 9.03784 21.2828C9.06821 21.2383 9.15174 21.2161 9.25045 21.2532C9.34916 21.3051 9.39472 21.3867 9.36435 21.4461Z" fill="#BFDBFE"/>
</svg>
