<svg width="92" height="13" viewBox="0 0 92 13" fill="none" xmlns="http://www.w3.org/2000/svg">
<path d="M0.880682 12V0.363636H3.69318V5.03409H8.27841V0.363636H11.0852V12H8.27841V7.32386H3.69318V12H0.880682ZM12.4688 2.64773V0.363636H22.304V2.64773H18.7756V12H16.0028V2.64773H12.4688ZM23.6776 0.363636H27.1605L30.1151 7.56818H30.2514L33.206 0.363636H36.6889V12H33.9503V4.85227H33.8537L31.0582 11.9261H29.3082L26.5128 4.8125H26.4162V12H23.6776V0.363636ZM38.4432 12V0.363636H41.2557V9.71591H46.0966V12H38.4432Z" fill="#F1F5F9"/>
<path d="M50.3423 12L46.956 0.363636H50.0639L51.8196 7.98864H51.9162L53.9219 0.363636H56.456L58.4616 8.00568H58.5582L60.3196 0.363636H63.4219L60.0412 12H57.331L55.2344 4.94318H55.1435L53.0469 12H50.3423ZM74.8793 6.18182C74.8793 7.46212 74.633 8.54735 74.1406 9.4375C73.6482 10.3277 72.9815 11.0038 72.1406 11.4659C71.3035 11.928 70.3641 12.1591 69.3224 12.1591C68.277 12.1591 67.3357 11.9261 66.4986 11.4602C65.6615 10.9943 64.9967 10.3182 64.5043 9.43182C64.0156 8.54167 63.7713 7.45833 63.7713 6.18182C63.7713 4.90152 64.0156 3.81629 64.5043 2.92614C64.9967 2.03598 65.6615 1.35985 66.4986 0.897727C67.3357 0.435606 68.277 0.204545 69.3224 0.204545C70.3641 0.204545 71.3035 0.435606 72.1406 0.897727C72.9815 1.35985 73.6482 2.03598 74.1406 2.92614C74.633 3.81629 74.8793 4.90152 74.8793 6.18182ZM72.0043 6.18182C72.0043 5.42424 71.8963 4.78409 71.6804 4.26136C71.4683 3.73864 71.1615 3.3428 70.7599 3.07386C70.3622 2.80492 69.883 2.67045 69.3224 2.67045C68.7656 2.67045 68.2865 2.80492 67.8849 3.07386C67.4834 3.3428 67.1747 3.73864 66.9588 4.26136C66.7467 4.78409 66.6406 5.42424 66.6406 6.18182C66.6406 6.93939 66.7467 7.57955 66.9588 8.10227C67.1747 8.625 67.4834 9.02083 67.8849 9.28977C68.2865 9.55871 68.7656 9.69318 69.3224 9.69318C69.883 9.69318 70.3622 9.55871 70.7599 9.28977C71.1615 9.02083 71.4683 8.625 71.6804 8.10227C71.8963 7.57955 72.0043 6.93939 72.0043 6.18182ZM78.733 12L75.3466 0.363636H78.4545L80.2102 7.98864H80.3068L82.3125 0.363636H84.8466L86.8523 8.00568H86.9489L88.7102 0.363636H91.8125L88.4318 12H85.7216L83.625 4.94318H83.5341L81.4375 12H78.733Z" fill="url(#paint0_linear_140_53)"/>
<defs>
<linearGradient id="paint0_linear_140_53" x1="-3.66142" y1="6.82759" x2="93" y2="6.82759" gradientUnits="userSpaceOnUse">
<stop stop-color="#93C5FD"/>
<stop offset="1" stop-color="#3B82F6"/>
</linearGradient>
</defs>
</svg>
